<svg height="30pt" viewBox="0 0 512.00037 512" width="30pt" xmlns="http://www.w3.org/2000/svg"><path d="m496.132812 15.863281c7.8125 7.808594 7.816407 20.464844 0 28.28125l-217.425781 217.4375h-.007812l-28.269531-28.28125 217.425781-217.4375c7.808593-7.808593 20.46875-7.808593 28.277343 0zm0 0" fill="#c6715a"/><path d="m229.207031 212.082031-28.289062 56.570313c5.117187 5.117187 37.304687 37.300781 42.429687 42.429687l56.570313-28.292969s11.535156 11.558594-70.710938-70.707031zm0 0" fill="#ffe470"/><path d="m10 357.039062 190.917969-88.386718c5.15625 5.15625 37.261719 37.261718 42.429687 42.429687l-88.386718 190.914063c-34.691407-5.394532-68.402344-22.4375-95.460938-49.496094-27.046875-27.046875-44.097656-60.75-49.5-95.460938zm0 0" fill="#ffb64c"/><path d="m151.417969 388.859375c-3.898438 3.910156-3.898438 10.238281 0 14.140625 3.910156 3.910156 10.242187 3.910156 14.148437 0 3.902344-3.902344 3.902344-10.230469 0-14.140625-3.90625-3.910156-10.238281-3.910156-14.148437 0zm0 0"/><path d="m109 346.429688c-3.910156 3.910156-3.910156 10.238281 0 14.148437 3.898438 3.902344 10.230469 3.902344 14.140625 0 3.910156-3.910156 3.910156-10.238281 0-14.148437-3.910156-3.898438-10.242187-3.898438-14.140625 0zm0 0"/><path d="m460.785156 8.792969-210.359375 210.371093-14.144531-14.152343c-4.820312-4.820313-12.964844-3.507813-16.019531 2.597656l-26.722657 53.4375-187.738281 86.917969c-4.050781 1.875-6.367187 6.203125-5.679687 10.613281 5.535156 35.589844 22.839844 71.527344 52.308594 100.992187 29.40625 29.40625 65.3125 46.757813 100.992187 52.308594 4.386719.683594 8.730469-1.613281 10.609375-5.679687l86.917969-187.738281 53.441406-26.726563c6.09375-3.046875 7.421875-11.1875 2.597656-16.015625l-14.140625-14.136719 210.355469-210.367187c11.726563-11.726563 11.730469-30.695313 0-42.421875-11.722656-11.722657-30.695313-11.722657-42.417969 0zm-228.839844 220.171875c1.894532 1.898437-6.84375-6.84375 18.46875 18.476562l-28.28125 28.28125-9.046874-9.042968zm-82.8125 261.816406c-6.582031-1.363281-13.109374-3.183594-19.535156-5.429688l22.394532-48.371093c2.320312-5.011719.140624-10.957031-4.871094-13.277344-5.015625-2.320313-10.957032-.136719-13.277344 4.875l-22.691406 49.011719c-13.402344-6.632813-25.890625-15.105469-37.304688-25.296875l42.222656-42.222657c3.90625-3.902343 3.90625-10.234374 0-14.140624s-10.234374-3.90625-14.144531 0l-42.21875 42.222656c-10.191406-11.410156-18.660156-23.902344-25.296875-37.308594l49.007813-22.6875c5.011719-2.320312 7.195312-8.265625 4.875-13.277344-2.320313-5.011718-8.261719-7.191406-13.277344-4.875l-48.371094 22.394532c-2.242187-6.421876-4.0625-12.949219-5.425781-19.53125l177.5625-82.207032 32.558594 32.554688zm96.1875-191.867188-9.046874-9.046874 28.285156-28.285157c1.886718 1.890625-6.84375-6.839843 18.476562 18.46875zm243.742188-261.839843-210.359375 210.371093c-1.445313-1.445312 5.238281 5.238282-14.136719-14.140624l210.359375-210.371094c3.90625-3.90625 10.226563-3.90625 14.136719 0 3.910156 3.914062 3.914062 10.226562 0 14.140625zm0 0"/></svg>
