<svg width="512px" height="450px" viewBox="0 0 512 450" version="1.1" xmlns="http://www.w3.org/2000/svg" xmlns:xlink="http://www.w3.org/1999/xlink">
    <!-- Generator: Sketch 51.3 (57544) - http://www.bohemiancoding.com/sketch -->
    <desc>Created with Sketch.</desc>
    <defs></defs>
    <g id="Page-1" stroke="none" stroke-width="1" fill="none" fill-rule="evenodd">
        <g id="logo" fill="#177FD0" fill-rule="nonzero">
            <g id="portfolio">
                <path d="M497.09375,60.003906 C497.0625,60.003906 497.03125,60 497,60 L361,60 L361,45 C361,20.1875 340.8125,0 316,0 L196,0 C171.1875,0 151,20.1875 151,45 L151,60 L15,60 C6.648438,60 0,66.84375 0,75 L0,405 C0,429.8125 20.1875,450 45,450 L467,450 C491.8125,450 512,429.8125 512,405 L512,75.316406 C512,75.296875 512,75.277344 512,75.257812 C511.425781,65.40625 505.367188,60.058594 497.09375,60.003906 Z M181,45 C181,36.730469 187.730469,30 196,30 L316,30 C324.269531,30 331,36.730469 331,45 L331,60 L181,60 L181,45 Z M476.1875,90 L429.605469,229.742188 C427.5625,235.878906 421.84375,240 415.378906,240 L331,240 L331,225 C331,216.714844 324.285156,210 316,210 L196,210 C187.714844,210 181,216.714844 181,225 L181,240 L96.621094,240 C90.15625,240 84.4375,235.878906 82.394531,229.742188 L35.8125,90 L476.1875,90 Z M301,240 L301,270 L211,270 L211,240 L301,240 Z M482,405 C482,413.269531 475.269531,420 467,420 L45,420 C36.730469,420 30,413.269531 30,405 L30,167.433594 L53.933594,239.230469 C60.066406,257.636719 77.222656,270 96.621094,270 L181,270 L181,285 C181,293.285156 187.714844,300 196,300 L316,300 C324.285156,300 331,293.285156 331,285 L331,270 L415.378906,270 C434.777344,270 451.933594,257.636719 458.066406,239.230469 L482,167.433594 L482,405 Z" id="Shape"></path>
            </g>
        </g>
    </g>
</svg>
