<?xml version="1.0" encoding="iso-8859-1"?>
<svg width="275px" height="52px" viewBox="0 0 163 52" version="1.1" xmlns="http://www.w3.org/2000/svg" xmlns:xlink="http://www.w3.org/1999/xlink">
    <!-- Generator: Sketch 51.3 (57544) - http://www.bohemiancoding.com/sketch -->
    <desc>Created with Sketch.</desc>
    <defs></defs>
    <g id="Page-1" stroke="none" stroke-width="1" fill="none" fill-rule="evenodd">
        <g id="star1" transform="translate(59.000000, 3.000000)" fill="#FFFF00" fill-rule="nonzero" stroke="#000000" stroke-width="2.02452003">
            <polygon id="path3651" points="37.1591861 45.9883523 22.9682223 36.207382 8.74400736 45.9348701 13.2108819 28.7296796 0.0116384223 17.5197024 16.9632822 16.6672814 23.0299157 0.0116458125 29.0397329 16.6900102 45.9883628 17.6062392 32.7509901 28.7664572"></polygon>
        </g>
        <g id="star1-copy-3" transform="translate(114.000000, 3.000000)" fill="#FFFF00" fill-rule="nonzero" stroke="#000000" stroke-width="2.02452003">
            <polygon id="path3651" points="37.1591861 45.9883523 22.9682223 36.207382 8.74400736 45.9348701 13.2108819 28.7296796 0.0116384223 17.5197024 16.9632822 16.6672814 23.0299157 0.0116458125 29.0397329 16.6900102 45.9883628 17.6062392 32.7509901 28.7664572"></polygon>
        </g>
        <g id="star1" transform="translate(3.000000, 3.000000)" fill="#FFFF00" fill-rule="nonzero" stroke="#000000" stroke-width="2.02452003">
            <polygon id="path3651" points="37.1591861 45.9883523 22.9682223 36.207382 8.74400736 45.9348701 13.2108819 28.7296796 0.0116384223 17.5197024 16.9632822 16.6672814 23.0299157 0.0116458125 29.0397329 16.6900102 45.9883628 17.6062392 32.7509901 28.7664572"></polygon>
        </g>
    </g>
</svg>
